<?xml version="1.0" encoding="utf-8"?>
<svg version="1.1" xmlns="http://www.w3.org/2000/svg" xmlns:xlink="http://www.w3.org/1999/xlink" x="0px" y="0px"
	 viewBox="0 0 128 128" style="enable-background:new 0 0 128 128;" xml:space="preserve">

	<path d="M95.3,31C83.8,19.4,65,19.4,53.4,31c-11.1,11.1-11.5,28.8-1.3,40.5l-7.7,7.7l-1-1c-1.2-1.2-3.2-1.2-4.4,0
		L21.2,96c-2.4,2.4-2.4,6.3,0,8.7h0c2.4,2.4,6.3,2.4,8.7,0l17.9-17.9c1.2-1.2,1.2-3.2,0-4.4l-0.6-0.6l7.7-7.7
		c11.6,10.2,29.4,9.8,40.5-1.3C106.9,61.3,106.9,42.5,95.3,31z M92.6,70.1c-10.1,10.1-26.4,10.1-36.4,0c-10.1-10.1-10.1-26.4,0-36.4
		c10.1-10.1,26.4-10.1,36.4,0C102.7,43.7,102.7,60.1,92.6,70.1z"/>
</svg>
